<?xml version="1.0" standalone="no"?><!DOCTYPE svg PUBLIC "-//W3C//DTD SVG 1.1//EN" "http://www.w3.org/Graphics/SVG/1.1/DTD/svg11.dtd"><svg t="1721294134596" class="icon" viewBox="0 0 1024 1024" version="1.1" xmlns="http://www.w3.org/2000/svg" p-id="4278" xmlns:xlink="http://www.w3.org/1999/xlink" width="200" height="200"><path d="M784.63998604 837.74825888c-17.39353952 0-31.54028337-14.14674386-31.54028338-31.54028336s14.14674386-31.54028337 31.54028338-31.54028336c84.6485543 0 170.4566793-48.23808122 170.4566793-140.53979378 0-65.86353339-45.22320007-125.0015647-112.24630223-147.4972065-15.30631456-5.1021042-26.20626464-18.32119379-28.29348961-34.32325002-16.46588335-125.92921897-121.52285642-220.78198361-244.43719613-220.78198359-108.07185423 0-202.69270431 71.66137923-235.16064388 178.34174823-6.26167299 20.64033327-26.90200629 32.69985216-48.0061667 27.82966249-36.41047499-8.11698534-71.19755212-4.40636256-105.5208002 11.59569174-55.65932302 25.7424375-94.15702299 77.69113963-100.41869599 135.66960215-5.33401873 49.1657355 9.74038129 96.47616058 42.44023346 132.88663555 32.23602501 35.94664594 78.61879389 56.5869792 126.85687515 56.58697919 17.39353952 0 31.54028337 14.14674386 31.54028338 31.54028336s-14.14674386 31.54028337-31.54028338 31.5402834c-66.3273605 0-129.63984176-28.29348961-173.9353857-77.69113962s-65.63161886-115.72501054-58.44228965-182.05237107c8.5808125-79.77836461 60.99334177-151.20782932 136.82916906-186.22682098 40.58492301-18.78502093 83.02515837-25.27861037 125.92922085-19.48076259 45.68702911-122.91433973 159.78864182-204.31610025 289.4284836-204.31610025 150.28017315 0 279.45618779 112.01438964 305.19862341 262.75838993 86.04003761 34.09133548 143.09084396 114.33352722 143.09084584 203.15653146 0 118.27606265-98.33147102 204.08418765-233.76916058 204.08418762z" fill="#1296db" p-id="4279"></path><path d="M784.63998604 837.74825888H253.78918748c-17.39353952 0-31.54028337-14.14674386-31.54028337-31.54028336s14.14674386-31.54028337 31.54028337-31.54028336h530.85079856c17.39353952 0 31.54028337 14.14674386 31.5402834 31.54028336s-14.14674386 31.54028337-31.5402834 31.54028336z" fill="#1296db" p-id="4280"></path></svg>